<mxfile host="app.diagrams.net" agent="Mozilla/5.0 (Windows NT 10.0; Win64; x64) AppleWebKit/537.36 (KHTML, like Gecko) Chrome/131.0.0.0 Safari/537.36" version="26.0.7">
  <diagram name="第 1 页" id="hS213kQ2S9t9e-VkORRH">
    <mxGraphModel dx="4532" dy="1620" grid="1" gridSize="10" guides="1" tooltips="1" connect="1" arrows="1" fold="1" page="1" pageScale="1" pageWidth="827" pageHeight="1169" math="0" shadow="0">
      <root>
        <mxCell id="0" />
        <mxCell id="1" parent="0" />
        <mxCell id="3GPHcJousMc2N9isHnGp-1" value="研究目标" style="whiteSpace=wrap;strokeWidth=2;" vertex="1" parent="1">
          <mxGeometry x="200" y="1170" width="2583" height="104" as="geometry" />
        </mxCell>
        <mxCell id="3GPHcJousMc2N9isHnGp-2" value="关键科学问题" style="whiteSpace=wrap;strokeWidth=2;" vertex="1" parent="1">
          <mxGeometry x="153" y="1016" width="2603" height="104" as="geometry" />
        </mxCell>
        <mxCell id="3GPHcJousMc2N9isHnGp-3" value="人机交互与展示" style="whiteSpace=wrap;strokeWidth=2;" vertex="1" parent="1">
          <mxGeometry x="1987" y="593" width="901" height="373" as="geometry" />
        </mxCell>
        <mxCell id="3GPHcJousMc2N9isHnGp-4" value="多视角投影研究" style="whiteSpace=wrap;strokeWidth=2;verticalAlign=top;" vertex="1" parent="1">
          <mxGeometry x="2022" y="817" width="831" height="124" as="geometry" />
        </mxCell>
        <mxCell id="3GPHcJousMc2N9isHnGp-5" value="视角追踪分析" style="whiteSpace=wrap;strokeWidth=2;" vertex="1" parent="3GPHcJousMc2N9isHnGp-4">
          <mxGeometry x="46" y="43" width="156" height="54" as="geometry" />
        </mxCell>
        <mxCell id="3GPHcJousMc2N9isHnGp-6" value="投影机校正" style="whiteSpace=wrap;strokeWidth=2;" vertex="1" parent="3GPHcJousMc2N9isHnGp-4">
          <mxGeometry x="361" y="43" width="140" height="54" as="geometry" />
        </mxCell>
        <mxCell id="3GPHcJousMc2N9isHnGp-7" value="内容生成渲染" style="whiteSpace=wrap;strokeWidth=2;" vertex="1" parent="3GPHcJousMc2N9isHnGp-4">
          <mxGeometry x="645" y="43" width="156" height="54" as="geometry" />
        </mxCell>
        <mxCell id="3GPHcJousMc2N9isHnGp-8" value="卡尔曼滤波&#xa;实时追踪" style="curved=1;startArrow=none;endArrow=block;exitX=1;exitY=0.5;entryX=0;entryY=0.5;rounded=0;" edge="1" parent="3GPHcJousMc2N9isHnGp-4" source="3GPHcJousMc2N9isHnGp-5" target="3GPHcJousMc2N9isHnGp-6">
          <mxGeometry relative="1" as="geometry">
            <Array as="points" />
          </mxGeometry>
        </mxCell>
        <mxCell id="3GPHcJousMc2N9isHnGp-9" value="GPU优化&#xa;无缝融合" style="curved=1;startArrow=none;endArrow=block;exitX=1;exitY=0.5;entryX=0;entryY=0.5;rounded=0;" edge="1" parent="3GPHcJousMc2N9isHnGp-4" source="3GPHcJousMc2N9isHnGp-6" target="3GPHcJousMc2N9isHnGp-7">
          <mxGeometry relative="1" as="geometry">
            <Array as="points" />
          </mxGeometry>
        </mxCell>
        <mxCell id="3GPHcJousMc2N9isHnGp-10" value="场景表达与渲染" style="whiteSpace=wrap;strokeWidth=2;" vertex="1" parent="1">
          <mxGeometry x="1009" y="347" width="958" height="420" as="geometry" />
        </mxCell>
        <mxCell id="3GPHcJousMc2N9isHnGp-11" value="神经表征研究" style="whiteSpace=wrap;strokeWidth=2;verticalAlign=top;" vertex="1" parent="1">
          <mxGeometry x="1044" y="618" width="888" height="124" as="geometry" />
        </mxCell>
        <mxCell id="3GPHcJousMc2N9isHnGp-12" value="多分辨率NeRF表征" style="whiteSpace=wrap;strokeWidth=2;" vertex="1" parent="3GPHcJousMc2N9isHnGp-11">
          <mxGeometry x="46" y="43" width="193" height="54" as="geometry" />
        </mxCell>
        <mxCell id="3GPHcJousMc2N9isHnGp-13" value="快速匹配方法" style="whiteSpace=wrap;strokeWidth=2;" vertex="1" parent="3GPHcJousMc2N9isHnGp-11">
          <mxGeometry x="399" y="43" width="156" height="54" as="geometry" />
        </mxCell>
        <mxCell id="3GPHcJousMc2N9isHnGp-14" value="渲染效果分析" style="whiteSpace=wrap;strokeWidth=2;" vertex="1" parent="3GPHcJousMc2N9isHnGp-11">
          <mxGeometry x="703" y="43" width="156" height="54" as="geometry" />
        </mxCell>
        <mxCell id="3GPHcJousMc2N9isHnGp-15" value="八叉树划分&#xa;特征融合" style="curved=1;startArrow=none;endArrow=block;exitX=1;exitY=0.5;entryX=0;entryY=0.5;rounded=0;" edge="1" parent="3GPHcJousMc2N9isHnGp-11" source="3GPHcJousMc2N9isHnGp-12" target="3GPHcJousMc2N9isHnGp-13">
          <mxGeometry relative="1" as="geometry">
            <Array as="points" />
            <mxPoint as="offset" />
          </mxGeometry>
        </mxCell>
        <mxCell id="3GPHcJousMc2N9isHnGp-16" value="PSNR评估&#xa;MSE分析" style="curved=1;startArrow=none;endArrow=block;exitX=1;exitY=0.5;entryX=0;entryY=0.5;rounded=0;" edge="1" parent="3GPHcJousMc2N9isHnGp-11" source="3GPHcJousMc2N9isHnGp-13" target="3GPHcJousMc2N9isHnGp-14">
          <mxGeometry relative="1" as="geometry">
            <Array as="points" />
          </mxGeometry>
        </mxCell>
        <mxCell id="3GPHcJousMc2N9isHnGp-17" value="数据获取与重建" style="whiteSpace=wrap;strokeWidth=2;" vertex="1" parent="1">
          <mxGeometry x="20" y="171" width="969" height="349" as="geometry" />
        </mxCell>
        <mxCell id="3GPHcJousMc2N9isHnGp-18" value="点云配准研究" style="whiteSpace=wrap;strokeWidth=2;verticalAlign=top;" vertex="1" parent="1">
          <mxGeometry x="55" y="372" width="899" height="124" as="geometry" />
        </mxCell>
        <mxCell id="3GPHcJousMc2N9isHnGp-19" value="数据采集与预处理" style="whiteSpace=wrap;strokeWidth=2;" vertex="1" parent="3GPHcJousMc2N9isHnGp-18">
          <mxGeometry x="46" y="43" width="188" height="54" as="geometry" />
        </mxCell>
        <mxCell id="3GPHcJousMc2N9isHnGp-20" value="特征配准方法" style="whiteSpace=wrap;strokeWidth=2;" vertex="1" parent="3GPHcJousMc2N9isHnGp-18">
          <mxGeometry x="377" y="43" width="156" height="54" as="geometry" />
        </mxCell>
        <mxCell id="3GPHcJousMc2N9isHnGp-21" value="准确度分析与评估" style="whiteSpace=wrap;strokeWidth=2;" vertex="1" parent="3GPHcJousMc2N9isHnGp-18">
          <mxGeometry x="681" y="43" width="188" height="54" as="geometry" />
        </mxCell>
        <mxCell id="3GPHcJousMc2N9isHnGp-22" value="高斯滤波&#xa;区域分割" style="curved=1;startArrow=none;endArrow=block;exitX=1;exitY=0.5;entryX=0;entryY=0.5;rounded=0;" edge="1" parent="3GPHcJousMc2N9isHnGp-18" source="3GPHcJousMc2N9isHnGp-19" target="3GPHcJousMc2N9isHnGp-20">
          <mxGeometry relative="1" as="geometry">
            <Array as="points" />
          </mxGeometry>
        </mxCell>
        <mxCell id="3GPHcJousMc2N9isHnGp-23" value="RMSE评估&#xa;误差分析" style="curved=1;startArrow=none;endArrow=block;exitX=1;exitY=0.5;entryX=0;entryY=0.5;rounded=0;" edge="1" parent="3GPHcJousMc2N9isHnGp-18" source="3GPHcJousMc2N9isHnGp-20" target="3GPHcJousMc2N9isHnGp-21">
          <mxGeometry relative="1" as="geometry">
            <Array as="points" />
          </mxGeometry>
        </mxCell>
        <mxCell id="3GPHcJousMc2N9isHnGp-24" value="人在回路&#xa;决策机制" style="ellipse;aspect=fixed;strokeWidth=2;whiteSpace=wrap;" vertex="1" parent="1">
          <mxGeometry x="1718" y="20" width="79" height="79" as="geometry" />
        </mxCell>
        <mxCell id="3GPHcJousMc2N9isHnGp-25" value="下视光学制导景象&#xa;三维点云配准及准确度分析" style="whiteSpace=wrap;strokeWidth=2;" vertex="1" parent="1">
          <mxGeometry x="411" y="196" width="252" height="78" as="geometry" />
        </mxCell>
        <mxCell id="3GPHcJousMc2N9isHnGp-26" value="下视光学制导景象&#xa;隐式神经表征及渲染效果分析" style="whiteSpace=wrap;strokeWidth=2;" vertex="1" parent="1">
          <mxGeometry x="1400" y="400" width="260" height="102" as="geometry" />
        </mxCell>
        <mxCell id="3GPHcJousMc2N9isHnGp-27" value="多用户多视角&#xa;交互式投影" style="whiteSpace=wrap;strokeWidth=2;" vertex="1" parent="1">
          <mxGeometry x="2359" y="641" width="156" height="78" as="geometry" />
        </mxCell>
        <mxCell id="3GPHcJousMc2N9isHnGp-28" value="复杂场景特征提取" style="whiteSpace=wrap;strokeWidth=2;" vertex="1" parent="1">
          <mxGeometry x="188" y="1041" width="188" height="54" as="geometry" />
        </mxCell>
        <mxCell id="3GPHcJousMc2N9isHnGp-29" value="特征融合优化" style="whiteSpace=wrap;strokeWidth=2;" vertex="1" parent="1">
          <mxGeometry x="426" y="1041" width="156" height="54" as="geometry" />
        </mxCell>
        <mxCell id="3GPHcJousMc2N9isHnGp-30" value="精度差异机理" style="whiteSpace=wrap;strokeWidth=2;" vertex="1" parent="1">
          <mxGeometry x="762" y="1041" width="156" height="54" as="geometry" />
        </mxCell>
        <mxCell id="3GPHcJousMc2N9isHnGp-31" value="高保真NeRF建模" style="whiteSpace=wrap;strokeWidth=2;" vertex="1" parent="1">
          <mxGeometry x="1180" y="1041" width="177" height="54" as="geometry" />
        </mxCell>
        <mxCell id="3GPHcJousMc2N9isHnGp-32" value="快速视图匹配" style="whiteSpace=wrap;strokeWidth=2;" vertex="1" parent="1">
          <mxGeometry x="1639" y="1041" width="156" height="54" as="geometry" />
        </mxCell>
        <mxCell id="3GPHcJousMc2N9isHnGp-33" value="多用户追踪" style="whiteSpace=wrap;strokeWidth=2;" vertex="1" parent="1">
          <mxGeometry x="2057" y="1041" width="140" height="54" as="geometry" />
        </mxCell>
        <mxCell id="3GPHcJousMc2N9isHnGp-34" value="图像校正" style="whiteSpace=wrap;strokeWidth=2;" vertex="1" parent="1">
          <mxGeometry x="2375" y="1041" width="124" height="54" as="geometry" />
        </mxCell>
        <mxCell id="3GPHcJousMc2N9isHnGp-35" value="内容生成" style="whiteSpace=wrap;strokeWidth=2;" vertex="1" parent="1">
          <mxGeometry x="2598" y="1041" width="124" height="54" as="geometry" />
        </mxCell>
        <mxCell id="3GPHcJousMc2N9isHnGp-36" value="配准误差≤1m/1°" style="whiteSpace=wrap;strokeWidth=2;" vertex="1" parent="1">
          <mxGeometry x="304" y="1195" width="179" height="54" as="geometry" />
        </mxCell>
        <mxCell id="3GPHcJousMc2N9isHnGp-37" value="PSNR≥35dB" style="whiteSpace=wrap;strokeWidth=2;" vertex="1" parent="1">
          <mxGeometry x="1418" y="1195" width="139" height="54" as="geometry" />
        </mxCell>
        <mxCell id="3GPHcJousMc2N9isHnGp-38" value="追踪率≥10Hz" style="whiteSpace=wrap;strokeWidth=2;" vertex="1" parent="1">
          <mxGeometry x="2052" y="1195" width="151" height="54" as="geometry" />
        </mxCell>
        <mxCell id="3GPHcJousMc2N9isHnGp-39" value="空间精度≤3mm" style="whiteSpace=wrap;strokeWidth=2;" vertex="1" parent="1">
          <mxGeometry x="2354" y="1195" width="167" height="54" as="geometry" />
        </mxCell>
        <mxCell id="3GPHcJousMc2N9isHnGp-40" value="响应时间≤100ms" style="whiteSpace=wrap;strokeWidth=2;" vertex="1" parent="1">
          <mxGeometry x="2571" y="1195" width="177" height="54" as="geometry" />
        </mxCell>
        <mxCell id="3GPHcJousMc2N9isHnGp-41" value="提供三维几何信息" style="curved=1;startArrow=none;endArrow=block;exitX=0.93;exitY=1.01;entryX=0;entryY=0.36;rounded=0;" edge="1" parent="1" source="3GPHcJousMc2N9isHnGp-25" target="3GPHcJousMc2N9isHnGp-26">
          <mxGeometry relative="1" as="geometry">
            <Array as="points">
              <mxPoint x="747" y="311" />
              <mxPoint x="747" y="347" />
            </Array>
          </mxGeometry>
        </mxCell>
        <mxCell id="3GPHcJousMc2N9isHnGp-42" value="生成高质量渲染结果" style="curved=1;startArrow=none;endArrow=block;exitX=0.96;exitY=1;entryX=0;entryY=0.38;rounded=0;" edge="1" parent="1" source="3GPHcJousMc2N9isHnGp-26" target="3GPHcJousMc2N9isHnGp-27">
          <mxGeometry relative="1" as="geometry">
            <Array as="points">
              <mxPoint x="1727" y="521" />
              <mxPoint x="1727" y="593" />
            </Array>
          </mxGeometry>
        </mxCell>
        <mxCell id="3GPHcJousMc2N9isHnGp-43" value="多用户交互反馈" style="curved=1;startArrow=none;endArrow=block;exitX=1;exitY=0.19;entryX=1;entryY=0.54;rounded=0;" edge="1" parent="1" source="3GPHcJousMc2N9isHnGp-27" target="3GPHcJousMc2N9isHnGp-24">
          <mxGeometry relative="1" as="geometry">
            <Array as="points">
              <mxPoint x="2717" y="593" />
              <mxPoint x="2717" y="135" />
            </Array>
          </mxGeometry>
        </mxCell>
        <mxCell id="3GPHcJousMc2N9isHnGp-44" value="优化参数调整" style="curved=1;startArrow=none;endArrow=block;exitX=0;exitY=0.53;entryX=0.5;entryY=0.01;rounded=0;" edge="1" parent="1" source="3GPHcJousMc2N9isHnGp-24" target="3GPHcJousMc2N9isHnGp-25">
          <mxGeometry relative="1" as="geometry">
            <Array as="points">
              <mxPoint x="537" y="135" />
            </Array>
          </mxGeometry>
        </mxCell>
        <mxCell id="3GPHcJousMc2N9isHnGp-45" value="场景重建优化" style="curved=1;startArrow=none;endArrow=block;exitX=0;exitY=0.66;entryX=0.5;entryY=0;rounded=0;" edge="1" parent="1" source="3GPHcJousMc2N9isHnGp-24" target="3GPHcJousMc2N9isHnGp-26">
          <mxGeometry relative="1" as="geometry">
            <Array as="points">
              <mxPoint x="1524" y="135" />
            </Array>
          </mxGeometry>
        </mxCell>
        <mxCell id="3GPHcJousMc2N9isHnGp-46" value="视角调整优化" style="curved=1;startArrow=none;endArrow=block;exitX=1;exitY=0.56;entryX=0.5;entryY=0;rounded=0;" edge="1" parent="1" source="3GPHcJousMc2N9isHnGp-24" target="3GPHcJousMc2N9isHnGp-27">
          <mxGeometry relative="1" as="geometry">
            <Array as="points">
              <mxPoint x="2437" y="135" />
            </Array>
          </mxGeometry>
        </mxCell>
        <mxCell id="3GPHcJousMc2N9isHnGp-47" value="" style="curved=1;startArrow=none;endArrow=block;exitX=0.5;exitY=1;entryX=0.18;entryY=0;rounded=0;" edge="1" parent="1" source="3GPHcJousMc2N9isHnGp-28" target="3GPHcJousMc2N9isHnGp-36">
          <mxGeometry relative="1" as="geometry">
            <Array as="points">
              <mxPoint x="282" y="1170" />
            </Array>
          </mxGeometry>
        </mxCell>
        <mxCell id="3GPHcJousMc2N9isHnGp-48" value="" style="curved=1;startArrow=none;endArrow=block;exitX=0.5;exitY=1;entryX=0.82;entryY=0;rounded=0;" edge="1" parent="1" source="3GPHcJousMc2N9isHnGp-29" target="3GPHcJousMc2N9isHnGp-36">
          <mxGeometry relative="1" as="geometry">
            <Array as="points">
              <mxPoint x="504" y="1170" />
            </Array>
          </mxGeometry>
        </mxCell>
        <mxCell id="3GPHcJousMc2N9isHnGp-49" value="" style="curved=1;startArrow=none;endArrow=block;exitX=0.5;exitY=1;entryX=0;entryY=0.2;rounded=0;" edge="1" parent="1" source="3GPHcJousMc2N9isHnGp-31" target="3GPHcJousMc2N9isHnGp-37">
          <mxGeometry relative="1" as="geometry">
            <Array as="points">
              <mxPoint x="1268" y="1170" />
            </Array>
          </mxGeometry>
        </mxCell>
        <mxCell id="3GPHcJousMc2N9isHnGp-50" value="" style="curved=1;startArrow=none;endArrow=block;exitX=0.5;exitY=1;entryX=1;entryY=0.21;rounded=0;" edge="1" parent="1" source="3GPHcJousMc2N9isHnGp-32" target="3GPHcJousMc2N9isHnGp-37">
          <mxGeometry relative="1" as="geometry">
            <Array as="points">
              <mxPoint x="1717" y="1170" />
            </Array>
          </mxGeometry>
        </mxCell>
        <mxCell id="3GPHcJousMc2N9isHnGp-51" value="" style="curved=1;startArrow=none;endArrow=block;exitX=0.5;exitY=1;entryX=0.5;entryY=0;rounded=0;" edge="1" parent="1" source="3GPHcJousMc2N9isHnGp-33" target="3GPHcJousMc2N9isHnGp-38">
          <mxGeometry relative="1" as="geometry">
            <Array as="points" />
          </mxGeometry>
        </mxCell>
        <mxCell id="3GPHcJousMc2N9isHnGp-52" value="" style="curved=1;startArrow=none;endArrow=block;exitX=0.5;exitY=1;entryX=0.5;entryY=0;rounded=0;" edge="1" parent="1" source="3GPHcJousMc2N9isHnGp-34" target="3GPHcJousMc2N9isHnGp-39">
          <mxGeometry relative="1" as="geometry">
            <Array as="points" />
          </mxGeometry>
        </mxCell>
        <mxCell id="3GPHcJousMc2N9isHnGp-53" value="" style="curved=1;startArrow=none;endArrow=block;exitX=0.5;exitY=1;entryX=0.5;entryY=0;rounded=0;" edge="1" parent="1" source="3GPHcJousMc2N9isHnGp-35" target="3GPHcJousMc2N9isHnGp-40">
          <mxGeometry relative="1" as="geometry">
            <Array as="points" />
          </mxGeometry>
        </mxCell>
        <mxCell id="3GPHcJousMc2N9isHnGp-54" value="" style="curved=1;startArrow=none;endArrow=block;exitX=0.43;exitY=1.01;entryX=0.5;entryY=0;rounded=0;" edge="1" parent="1" source="3GPHcJousMc2N9isHnGp-25" target="3GPHcJousMc2N9isHnGp-18">
          <mxGeometry relative="1" as="geometry">
            <Array as="points">
              <mxPoint x="504" y="311" />
            </Array>
          </mxGeometry>
        </mxCell>
        <mxCell id="3GPHcJousMc2N9isHnGp-55" value="" style="curved=1;startArrow=none;endArrow=block;exitX=0.42;exitY=1;entryX=0.5;entryY=0;rounded=0;" edge="1" parent="1" source="3GPHcJousMc2N9isHnGp-26" target="3GPHcJousMc2N9isHnGp-11">
          <mxGeometry relative="1" as="geometry">
            <Array as="points">
              <mxPoint x="1488" y="521" />
            </Array>
          </mxGeometry>
        </mxCell>
        <mxCell id="3GPHcJousMc2N9isHnGp-56" value="" style="curved=1;startArrow=none;endArrow=block;exitX=0.5;exitY=1;entryX=0.5;entryY=0;rounded=0;" edge="1" parent="1" source="3GPHcJousMc2N9isHnGp-27" target="3GPHcJousMc2N9isHnGp-4">
          <mxGeometry relative="1" as="geometry">
            <Array as="points" />
          </mxGeometry>
        </mxCell>
        <mxCell id="3GPHcJousMc2N9isHnGp-57" value="" style="curved=1;startArrow=none;endArrow=block;exitX=0.32;exitY=1;entryX=0.5;entryY=0;rounded=0;" edge="1" parent="1" source="3GPHcJousMc2N9isHnGp-18" target="3GPHcJousMc2N9isHnGp-28">
          <mxGeometry relative="1" as="geometry">
            <Array as="points">
              <mxPoint x="282" y="521" />
            </Array>
          </mxGeometry>
        </mxCell>
        <mxCell id="3GPHcJousMc2N9isHnGp-58" value="" style="curved=1;startArrow=none;endArrow=block;exitX=0.5;exitY=1;entryX=0.5;entryY=0;rounded=0;" edge="1" parent="1" source="3GPHcJousMc2N9isHnGp-18" target="3GPHcJousMc2N9isHnGp-29">
          <mxGeometry relative="1" as="geometry">
            <Array as="points" />
          </mxGeometry>
        </mxCell>
        <mxCell id="3GPHcJousMc2N9isHnGp-59" value="" style="curved=1;startArrow=none;endArrow=block;exitX=0.77;exitY=1;entryX=0.5;entryY=0;rounded=0;" edge="1" parent="1" source="3GPHcJousMc2N9isHnGp-18" target="3GPHcJousMc2N9isHnGp-30">
          <mxGeometry relative="1" as="geometry">
            <Array as="points">
              <mxPoint x="840" y="521" />
            </Array>
          </mxGeometry>
        </mxCell>
        <mxCell id="3GPHcJousMc2N9isHnGp-60" value="" style="curved=1;startArrow=none;endArrow=block;exitX=0.32;exitY=1;entryX=0.5;entryY=0;rounded=0;" edge="1" parent="1" source="3GPHcJousMc2N9isHnGp-11" target="3GPHcJousMc2N9isHnGp-31">
          <mxGeometry relative="1" as="geometry">
            <Array as="points">
              <mxPoint x="1268" y="767" />
            </Array>
          </mxGeometry>
        </mxCell>
        <mxCell id="3GPHcJousMc2N9isHnGp-61" value="" style="curved=1;startArrow=none;endArrow=block;exitX=0.68;exitY=1;entryX=0.5;entryY=0;rounded=0;" edge="1" parent="1" source="3GPHcJousMc2N9isHnGp-11" target="3GPHcJousMc2N9isHnGp-32">
          <mxGeometry relative="1" as="geometry">
            <Array as="points">
              <mxPoint x="1717" y="767" />
            </Array>
          </mxGeometry>
        </mxCell>
        <mxCell id="3GPHcJousMc2N9isHnGp-62" value="" style="curved=1;startArrow=none;endArrow=block;exitX=0.23;exitY=1;entryX=0.5;entryY=0;rounded=0;" edge="1" parent="1" source="3GPHcJousMc2N9isHnGp-4" target="3GPHcJousMc2N9isHnGp-33">
          <mxGeometry relative="1" as="geometry">
            <Array as="points">
              <mxPoint x="2127" y="966" />
            </Array>
          </mxGeometry>
        </mxCell>
        <mxCell id="3GPHcJousMc2N9isHnGp-63" value="" style="curved=1;startArrow=none;endArrow=block;exitX=0.5;exitY=1;entryX=0.5;entryY=0;rounded=0;" edge="1" parent="1" source="3GPHcJousMc2N9isHnGp-4" target="3GPHcJousMc2N9isHnGp-34">
          <mxGeometry relative="1" as="geometry">
            <Array as="points" />
          </mxGeometry>
        </mxCell>
        <mxCell id="3GPHcJousMc2N9isHnGp-64" value="" style="curved=1;startArrow=none;endArrow=block;exitX=0.69;exitY=1;entryX=0.5;entryY=0;rounded=0;" edge="1" parent="1" source="3GPHcJousMc2N9isHnGp-4" target="3GPHcJousMc2N9isHnGp-35">
          <mxGeometry relative="1" as="geometry">
            <Array as="points">
              <mxPoint x="2660" y="966" />
            </Array>
          </mxGeometry>
        </mxCell>
      </root>
    </mxGraphModel>
  </diagram>
</mxfile>
